REM DIRINDEX 1\2,1\4,1\5,1\6,1\7,1\3\8,1\3\9,1\3\10
REM DIRNAME folder01,folder02,folder03,folder04,folder05,folder06,folder07,folder08,folder09,folder10
TITLE ""
FILE "DB4500_5th_6C_53.mp3" MP3
  TRACK 01 AUDIO
    TITLE "0:"
    INDEX 01 00:00:00
  TRACK 02 AUDIO
    TITLE "8:cjc113_5426"
    INDEX 01 00:00:01
  TRACK 03 AUDIO
    TITLE "0:"
    INDEX 01 00:01:11
  TRACK 04 AUDIO
    TITLE "9:cjc113_5427"
    INDEX 01 00:01:28
  TRACK 05 AUDIO
    TITLE "0:"
    INDEX 01 00:02:38
  TRACK 06 AUDIO
    TITLE "10:cjc113_5428"
    INDEX 01 00:02:53
  TRACK 07 AUDIO
    TITLE "0:"
    INDEX 01 00:06:22
  TRACK 08 AUDIO
    TITLE "8:cjc113_5429"
    INDEX 01 00:06:65
  TRACK 09 AUDIO
    TITLE "0:"
    INDEX 01 00:08:30
  TRACK 10 AUDIO
    TITLE "9:cjc113_5430"
    INDEX 01 00:08:48
  TRACK 11 AUDIO
    TITLE "0:"
    INDEX 01 00:09:71
  TRACK 12 AUDIO
    TITLE "10:cjc113_5431"
    INDEX 01 00:10:18
  TRACK 13 AUDIO
    TITLE "0:"
    INDEX 01 00:15:34
  TRACK 14 AUDIO
    TITLE "8:cjc113_5432"
    INDEX 01 00:16:00
  TRACK 15 AUDIO
    TITLE "0:"
    INDEX 01 00:17:14
  TRACK 16 AUDIO
    TITLE "9:cjc113_5433"
    INDEX 01 00:17:29
  TRACK 17 AUDIO
    TITLE "0:"
    INDEX 01 00:18:41
  TRACK 18 AUDIO
    TITLE "10:cjc113_5434"
    INDEX 01 00:18:54
  TRACK 19 AUDIO
    TITLE "0:"
    INDEX 01 00:22:64
  TRACK 20 AUDIO
    TITLE "8:cjc113_5435"
    INDEX 01 00:23:30
  TRACK 21 AUDIO
    TITLE "0:"
    INDEX 01 00:24:41
  TRACK 22 AUDIO
    TITLE "9:cjc113_5436"
    INDEX 01 00:24:57
  TRACK 23 AUDIO
    TITLE "0:"
    INDEX 01 00:25:62
  TRACK 24 AUDIO
    TITLE "10:cjc113_5437"
    INDEX 01 00:26:03
  TRACK 25 AUDIO
    TITLE "0:"
    INDEX 01 00:30:12
  TRACK 26 AUDIO
    TITLE "8:cjc113_5438"
    INDEX 01 00:30:54
  TRACK 27 AUDIO
    TITLE "0:"
    INDEX 01 00:31:71
  TRACK 28 AUDIO
    TITLE "9:cjc113_5439"
    INDEX 01 00:32:13
  TRACK 29 AUDIO
    TITLE "0:"
    INDEX 01 00:33:38
  TRACK 30 AUDIO
    TITLE "10:cjc113_5440"
    INDEX 01 00:33:54
  TRACK 31 AUDIO
    TITLE "0:"
    INDEX 01 00:37:22
  TRACK 32 AUDIO
    TITLE "8:cjc113_5441"
    INDEX 01 00:37:59
  TRACK 33 AUDIO
    TITLE "0:"
    INDEX 01 00:38:65
  TRACK 34 AUDIO
    TITLE "9:cjc113_5442"
    INDEX 01 00:39:05
  TRACK 35 AUDIO
    TITLE "0:"
    INDEX 01 00:40:05
  TRACK 36 AUDIO
    TITLE "10:cjc113_5443"
    INDEX 01 00:40:24
  TRACK 37 AUDIO
    TITLE "0:"
    INDEX 01 00:44:16
  TRACK 38 AUDIO
    TITLE "8:cjc113_5444"
    INDEX 01 00:44:52
  TRACK 39 AUDIO
    TITLE "0:"
    INDEX 01 00:45:53
  TRACK 40 AUDIO
    TITLE "9:cjc113_5445"
    INDEX 01 00:45:71
  TRACK 41 AUDIO
    TITLE "0:"
    INDEX 01 00:46:72
  TRACK 42 AUDIO
    TITLE "10:cjc113_5446"
    INDEX 01 00:47:15
  TRACK 43 AUDIO
    TITLE "0:"
    INDEX 01 00:50:64
  TRACK 44 AUDIO
    TITLE "8:cjc113_5447"
    INDEX 01 00:51:30
  TRACK 45 AUDIO
    TITLE "0:"
    INDEX 01 00:52:32
  TRACK 46 AUDIO
    TITLE "9:cjc113_5448"
    INDEX 01 00:52:47
  TRACK 47 AUDIO
    TITLE "0:"
    INDEX 01 00:53:72
  TRACK 48 AUDIO
    TITLE "10:cjc113_5449"
    INDEX 01 00:54:13
  TRACK 49 AUDIO
    TITLE "0:"
    INDEX 01 00:57:54
  TRACK 50 AUDIO
    TITLE "8:cjc113_5450"
    INDEX 01 00:58:18
  TRACK 51 AUDIO
    TITLE "0:"
    INDEX 01 00:59:22
  TRACK 52 AUDIO
    TITLE "9:cjc113_5451"
    INDEX 01 00:59:38
  TRACK 53 AUDIO
    TITLE "0:"
    INDEX 01 01:01:03
  TRACK 54 AUDIO
    TITLE "10:cjc113_5452"
    INDEX 01 01:01:19
  TRACK 55 AUDIO
    TITLE "0:"
    INDEX 01 01:05:17
  TRACK 56 AUDIO
    TITLE "8:cjc113_5453"
    INDEX 01 01:05:48
  TRACK 57 AUDIO
    TITLE "0:"
    INDEX 01 01:06:65
  TRACK 58 AUDIO
    TITLE "9:cjc113_5454"
    INDEX 01 01:07:04
  TRACK 59 AUDIO
    TITLE "0:"
    INDEX 01 01:08:29
  TRACK 60 AUDIO
    TITLE "10:cjc113_5455"
    INDEX 01 01:08:46
  TRACK 61 AUDIO
    TITLE "0:"
    INDEX 01 01:12:50
  TRACK 62 AUDIO
    TITLE "8:cjc113_5456"
    INDEX 01 01:13:16
  TRACK 63 AUDIO
    TITLE "0:"
    INDEX 01 01:14:29
  TRACK 64 AUDIO
    TITLE "9:cjc113_5457"
    INDEX 01 01:14:45
  TRACK 65 AUDIO
    TITLE "0:"
    INDEX 01 01:15:68
  TRACK 66 AUDIO
    TITLE "10:cjc113_5458"
    INDEX 01 01:16:07
  TRACK 67 AUDIO
    TITLE "0:"
    INDEX 01 01:18:62
  TRACK 68 AUDIO
    TITLE "8:cjc113_5459"
    INDEX 01 01:19:19
  TRACK 69 AUDIO
    TITLE "0:"
    INDEX 01 01:20:38
  TRACK 70 AUDIO
    TITLE "9:cjc113_5460"
    INDEX 01 01:20:55
  TRACK 71 AUDIO
    TITLE "0:"
    INDEX 01 01:21:74
  TRACK 72 AUDIO
    TITLE "10:cjc113_5461"
    INDEX 01 01:22:19
  TRACK 73 AUDIO
    TITLE "0:"
    INDEX 01 01:25:62
  TRACK 74 AUDIO
    TITLE "8:cjc113_5462"
    INDEX 01 01:26:29
  TRACK 75 AUDIO
    TITLE "0:"
    INDEX 01 01:27:38
  TRACK 76 AUDIO
    TITLE "9:cjc113_5463"
    INDEX 01 01:27:51
  TRACK 77 AUDIO
    TITLE "0:"
    INDEX 01 01:29:17
  TRACK 78 AUDIO
    TITLE "10:cjc113_5464"
    INDEX 01 01:29:33
  TRACK 79 AUDIO
    TITLE "0:"
    INDEX 01 01:32:60
  TRACK 80 AUDIO
    TITLE "8:cjc113_5465"
    INDEX 01 01:33:25
  TRACK 81 AUDIO
    TITLE "0:"
    INDEX 01 01:34:59
  TRACK 82 AUDIO
    TITLE "9:cjc113_5466"
    INDEX 01 01:34:71
  TRACK 83 AUDIO
    TITLE "0:"
    INDEX 01 01:36:35
  TRACK 84 AUDIO
    TITLE "10:cjc113_5467"
    INDEX 01 01:36:43
  TRACK 85 AUDIO
    TITLE "0:"
    INDEX 01 01:41:05
  TRACK 86 AUDIO
    TITLE "8:cjc113_5468"
    INDEX 01 01:41:48
  TRACK 87 AUDIO
    TITLE "0:"
    INDEX 01 01:42:71
  TRACK 88 AUDIO
    TITLE "9:cjc113_5469"
    INDEX 01 01:43:11
  TRACK 89 AUDIO
    TITLE "0:"
    INDEX 01 01:44:42
  TRACK 90 AUDIO
    TITLE "10:cjc113_5470"
    INDEX 01 01:44:56
  TRACK 91 AUDIO
    TITLE "0:"
    INDEX 01 01:48:18
